<svg xmlns="http://www.w3.org/2000/svg" width="31.275" height="28.668" viewBox="0 0 31.275 28.668">
  <g id="emergency_icon" transform="translate(315.558 -1429.754)">
    <path id="Path_1095" data-name="Path 1095" d="M-303.826,1434.964c0-.517-.014-.932,0-1.346a3.889,3.889,0,0,1,3.951-3.864,3.892,3.892,0,0,1,3.855,3.862c.017.414,0,.829,0,1.348h8.771c.293,0,.587-.008.879.01a1.94,1.94,0,0,1,2.076,2.177q.012,9.474,0,18.947c0,1.575-.748,2.3-2.352,2.317-1.465.013-2.93,0-4.395,0q-10.841,0-21.681,0a9.379,9.379,0,0,1-1.073-.027,1.965,1.965,0,0,1-1.753-1.806c-.025-.258-.013-.521-.013-.781q0-9.181,0-18.36c0-.163-.006-.326,0-.488a1.9,1.9,0,0,1,1.882-1.966c.323-.031.65-.024.976-.025q3.858,0,7.715,0Zm-10.371,6.544c-.022.372-.053.658-.053.944q0,6.689,0,13.377c0,.2,0,.391.015.585a.634.634,0,0,0,.619.634,6.717,6.717,0,0,0,.681.031q13.036,0,26.071,0c1.183,0,1.275-.1,1.276-1.288q0-6.64,0-13.279c0-.316-.034-.631-.055-1Zm10.37-5.214c-.259-.021-.385-.04-.512-.04q-4.395,0-8.789,0c-.13,0-.261,0-.391.006a.644.644,0,0,0-.706.652c-.022,1.058-.007,2.117-.007,3.182h28.644c0-.912.006-1.755,0-2.6-.009-1.118-.125-1.238-1.226-1.24q-4.2-.006-8.4,0c-.249,0-.5.039-.8.065,0,.413.018.767,0,1.12a1.293,1.293,0,0,1-1.32,1.4q-2.585.071-5.173,0c-.839-.024-1.26-.54-1.313-1.4C-303.845,1437.081-303.827,1436.728-303.827,1436.294Zm6.528,1.194c0-1.182,0-2.246,0-3.311a7.1,7.1,0,0,0-.067-.969,2.284,2.284,0,0,0-.2-.645,2.542,2.542,0,0,0-2.9-1.441,2.461,2.461,0,0,0-2.029,2.3c-.073,1.13-.042,2.268-.043,3.4a4.365,4.365,0,0,0,.1.665Z" transform="translate(0 0)" fill-rule="evenodd"/>
    <path id="Path_1096" data-name="Path 1096" d="M-293.724,1505.3a1.769,1.769,0,0,0-.324-1.665,5.362,5.362,0,0,1-.894-4.449,3.434,3.434,0,0,1,3.634-2.75,3.39,3.39,0,0,1,3.384,3.035,5.443,5.443,0,0,1-.976,4.254,1.412,1.412,0,0,0-.239,1.57c1.034.428,2.1.82,3.123,1.313a7.929,7.929,0,0,1,1.5,1.067.561.561,0,0,1,.054.867.624.624,0,0,1-.953.084,10.429,10.429,0,0,0-3.612-1.856,2.2,2.2,0,0,1-1.074-3.578,4.726,4.726,0,0,0,.946-3.287,2.247,2.247,0,0,0-2.287-2.186,2.193,2.193,0,0,0-2.25,2.19,4.456,4.456,0,0,0,.97,3.368,2.352,2.352,0,0,1,.36,2.137,1.526,1.526,0,0,1-1.041,1.189,12.232,12.232,0,0,0-1.541.6c-.863.436-1.7.917-2.541,1.4-.277.16-.526.267-.8.028a.582.582,0,0,1-.117-.867,4.413,4.413,0,0,1,1.1-.938,20.915,20.915,0,0,1,2.04-.922C-294.757,1505.69-294.241,1505.5-293.724,1505.3Z" transform="translate(-13.686 -53.645)" fill-rule="evenodd"/>
    <path id="Path_1097" data-name="Path 1097" d="M-213.959,1517.7c-1.136,0-2.271,0-3.406,0a1.412,1.412,0,0,1-.667-.056.857.857,0,0,1-.407-.577.787.787,0,0,1,.4-.564,1.73,1.73,0,0,1,.761-.085q3.309-.008,6.618,0c.13,0,.26,0,.389.006.407.032.819.1.809.628-.01.488-.345.657-.794.651-.162,0-.324,0-.487,0Z" transform="translate(-78.138 -69.722)" fill-rule="evenodd"/>
    <path id="Path_1098" data-name="Path 1098" d="M-215.758,1537.707c-.65,0-1.3.013-1.951,0-.617-.015-.909-.236-.889-.657.025-.519.4-.62.821-.621,1.366-.005,2.731,0,4.1,0,.426,0,.795.1.845.6.041.41-.274.659-.875.675C-214.392,1537.721-215.075,1537.707-215.758,1537.707Z" transform="translate(-78.01 -85.821)" fill-rule="evenodd"/>
  </g>
</svg>
