<svg xmlns="http://www.w3.org/2000/svg" width="31.836" height="31.89" viewBox="0 0 31.836 31.89">
  <g id="insurance_icon" transform="translate(519.53 -1075.896)">
    <path id="Path_1082" data-name="Path 1082" d="M-519.508,1091.764c0-4.439.04-8.878-.022-13.316a2.289,2.289,0,0,1,2.54-2.551c5.531.055,11.064.029,16.6.011a2.844,2.844,0,0,1,2.209.9c1.4,1.453,2.845,2.868,4.294,4.276a2.638,2.638,0,0,1,.907,2.1c-.045,1.125-.01,2.252-.011,3.379,0,.166,0,.332-.009.5-.03.4-.187.733-.633.749s-.635-.3-.671-.7c-.021-.23-.015-.463-.016-.7,0-1.027-.013-2.054,0-3.081a1.684,1.684,0,0,0-.528-1.329q-2.132-2.083-4.212-4.218a1.674,1.674,0,0,0-1.3-.571c-5.565.013-11.13,0-16.7.011-.988,0-1.122.147-1.124,1.181q-.011,5.615,0,11.229v14.708c0,.2,0,.4,0,.6,0,1.42.054,1.474,1.437,1.475q4.572,0,9.143,0c.563,0,1.126-.006,1.689.005.444.009.9.04.947.632.031.414-.294.666-.911.667-3.843.008-7.685.019-11.528-.005a2,2,0,0,1-2.1-2.243C-519.514,1100.906-519.508,1096.335-519.508,1091.764Z" transform="translate(0)" fill-rule="evenodd"/>
    <path id="Path_1083" data-name="Path 1083" d="M-428.88,1155.141a24.335,24.335,0,0,1-.015,2.677,9.683,9.683,0,0,1-5.547,7.728c-2.932,1.546-3.066,1.542-6.01.031a9.923,9.923,0,0,1-5.362-6.542,8.4,8.4,0,0,1-.22-1.867c-.032-1.423-.03-2.847-.007-4.269a1.936,1.936,0,0,1,1.574-2.217,20.574,20.574,0,0,1,14.094.008,2.088,2.088,0,0,1,1.541,2.167c0,.761,0,1.523,0,2.284Zm-1.264.3c0-.828,0-1.657,0-2.485a.926.926,0,0,0-.635-1,19.249,19.249,0,0,0-13.235-.036c-.416.148-.714.384-.708.845a40.941,40.941,0,0,0,.144,5.454c.442,2.97,2.36,4.974,4.955,6.306,2.1,1.079,2.149,1.056,4.263.03a9.478,9.478,0,0,0,4.632-4.724A10.033,10.033,0,0,0-430.144,1155.442Z" transform="translate(-58.864 -58.922)" fill-rule="evenodd"/>
    <path id="Path_1084" data-name="Path 1084" d="M-485.616,1130.713h-5.452c-.165,0-.33,0-.5,0-.7-.022-1.019-.23-1.017-.668s.3-.633,1.041-.635q5.9-.013,11.8,0c.164,0,.373-.031.483.053.213.164.52.408.51.605-.011.216-.3.488-.534.6a1.9,1.9,0,0,1-.781.043Q-482.84,1130.715-485.616,1130.713Z" transform="translate(-21.591 -42.866)" fill-rule="evenodd"/>
    <path id="Path_1085" data-name="Path 1085" d="M-487.274,1110.72c-1.322,0-2.644,0-3.966,0a1.761,1.761,0,0,1-.776-.075.822.822,0,0,1-.4-.592.855.855,0,0,1,.431-.56,1.443,1.443,0,0,1,.678-.077q4.115-.007,8.229,0c.794,0,1.161.207,1.18.617.02.449-.388.686-1.209.689C-484.5,1110.723-485.886,1110.72-487.274,1110.72Z" transform="translate(-21.721 -26.85)" fill-rule="evenodd"/>
    <path id="Path_1086" data-name="Path 1086" d="M-489.224,1149.419c.76,0,1.519,0,2.279,0,.461,0,.887.07.955.63.047.383-.328.668-.912.673-1.585.014-3.171,0-4.757,0h-.1c-.452-.012-.8-.187-.794-.684,0-.463.356-.6.751-.609.858-.012,1.717,0,2.576,0Z" transform="translate(-21.614 -58.903)" fill-rule="evenodd"/>
    <path id="Path_1087" data-name="Path 1087" d="M-489.134,1169.427h2.279c.434,0,.8.113.876.607.056.388-.312.687-.891.693-1.618.015-3.237.007-4.855,0-.446,0-.807-.161-.812-.663,0-.531.406-.629.827-.635.859-.012,1.718,0,2.576,0Z" transform="translate(-21.625 -74.932)" fill-rule="evenodd"/>
    <path id="Path_1088" data-name="Path 1088" d="M-489.191,1190.719c-.727,0-1.454.005-2.18,0a1.348,1.348,0,0,1-.672-.083.866.866,0,0,1-.4-.6.819.819,0,0,1,.446-.547,1.918,1.918,0,0,1,.779-.073c1.354-.006,2.709,0,4.063,0,.1,0,.2,0,.3,0,.461,0,.882.071.955.63.043.327-.375.746-1.014.692C-487.667,1190.67-488.431,1190.718-489.191,1190.719Z" transform="translate(-21.704 -90.941)" fill-rule="evenodd"/>
    <path id="Path_1089" data-name="Path 1089" d="M-420.6,1166.687c.868,0,1.655,0,2.442,0a8.885,8.885,0,0,1,.893.028.6.6,0,0,1,.608.651.617.617,0,0,1-.615.651c-.5.031-.993.025-1.49.028-.589,0-1.178,0-1.838,0,0,.843,0,1.567,0,2.291,0,.3.01.6-.008.894-.027.452-.227.769-.729.758s-.57-.384-.578-.766c-.014-.7-.009-1.392-.01-2.088,0-.324,0-.648,0-1.09-.9,0-1.685,0-2.473,0-.3,0-.6,0-.893-.033a.591.591,0,0,1-.564-.683.57.57,0,0,1,.54-.606c.362-.035.727-.032,1.091-.034.723,0,1.446,0,2.3,0,0-.658,0-1.21,0-1.762,0-.431-.016-.863.008-1.292.036-.637.271-.933.694-.886.509.057.62.426.622.861,0,.563,0,1.127,0,1.69C-420.6,1165.723-420.6,1166.148-420.6,1166.687Z" transform="translate(-75.051 -69.578)" fill-rule="evenodd"/>
  </g>
</svg>
