<svg xmlns="http://www.w3.org/2000/svg" width="34.571" height="34.56" viewBox="0 0 34.571 34.56">
  <g id="passport_icon" transform="translate(538.574 -720.319)">
    <path id="Path_1064" data-name="Path 1064" d="M-520.19,753.015c-.116.133-.215.234-.3.346a3.736,3.736,0,0,1-3.187,1.507c-3.677-.016-7.354-.047-11.03.011a3.711,3.711,0,0,1-3.867-3.864c.021-5.083,0-10.166.01-15.248.006-2.5,1.353-3.891,3.864-3.948,2.2-.049,4.4-.012,6.6-.013h1.227c.239-.879.464-1.669.668-2.464.607-2.372,1.2-4.747,1.809-7.119.429-1.678,1.256-2.176,2.933-1.769,1.4.34,2.791.716,4.2,1.025a1.738,1.738,0,0,1,1.593,1.741,1.76,1.76,0,0,0,1.3,1.675,1.734,1.734,0,0,0,2.06-.8,1.725,1.725,0,0,1,2.2-.81c1.46.393,2.942.7,4.4,1.1a2.064,2.064,0,0,1,1.6,2.8c-2.15,8.555-4.327,17.1-6.432,25.669a2.329,2.329,0,0,1-3.047,1.839C-515.75,754.013-517.978,753.562-520.19,753.015Zm-5.163-21.2c.747,0,1.281-.005,1.814,0a3.567,3.567,0,0,1,3.291,1.895,1.273,1.273,0,0,0,.928.639c1.645.394,3.284.814,4.924,1.23.558.142,1.115.287,1.666.454.678.205.917.507.748.95-.2.512-.589.565-1.061.4-.169-.059-.352-.076-.527-.119-1.78-.448-3.559-.9-5.34-1.343a7.613,7.613,0,0,0-.853-.109V740.1l2.847,1.95c.469-.177.871-.331,1.274-.48.439-.162.874-.339,1.322-.473a2.3,2.3,0,0,1,2.772,1.287,2.208,2.208,0,0,1-1.05,2.85,4.65,4.65,0,0,1-.8.328c-1.167.37-2.339.722-3.506,1.091-.953.3-1.9.62-2.84.927v4.047c2.3.586,4.526,1.161,6.76,1.715a3.041,3.041,0,0,0,.8-.042q3.374-13.348,6.718-26.614a2.884,2.884,0,0,0-.048-.749l-5.334-1.351a3.321,3.321,0,0,1-3.765,1.717,3.432,3.432,0,0,1-2.64-3.264,17.454,17.454,0,0,0-5.583-1.176Zm-11.772,11.454c0,2.523.066,5.048-.023,7.567a2.437,2.437,0,0,0,2.592,2.619c3.567-.06,7.135-.01,10.7-.024a2.264,2.264,0,0,0,2.588-2.581q.013-7.513,0-15.025c0-1.773-.821-2.59-2.575-2.595-3.568-.01-7.136.035-10.7-.022a2.4,2.4,0,0,0-2.6,2.6C-537.072,738.3-537.125,740.784-537.126,743.27Zm17.37,2.771c2.171-.686,4.19-1.31,6.2-1.966.634-.207.856-.654.657-1.139a.844.844,0,0,0-1.172-.41c-.746.256-1.5.513-2.213.838a1.427,1.427,0,0,1-1.593-.2c-.567-.423-1.173-.794-1.879-1.267Z" fill-rule="evenodd"/>
    <path id="Path_1065" data-name="Path 1065" d="M-448.985,773.667c.373.074.586.106.794.158q2.865.723,5.727,1.454a1.237,1.237,0,0,1,.593.223,1,1,0,0,1,.307.708c-.047.216-.336.433-.57.535-.164.072-.416-.034-.622-.085q-2.871-.7-5.739-1.416a1.45,1.45,0,0,1-.694-.252,1.124,1.124,0,0,1-.332-.8C-449.481,773.968-449.131,773.8-448.985,773.667Z" transform="translate(-69.783 -41.807)" fill-rule="evenodd"/>
    <path id="Path_1066" data-name="Path 1066" d="M-465.327,752.235a1.089,1.089,0,0,1-1.083,1.1,1.123,1.123,0,0,1-1.058-1.024,1.159,1.159,0,0,1,1.092-1.118A1.16,1.16,0,0,1-465.327,752.235Z" transform="translate(-55.723 -24.193)" fill-rule="evenodd"/>
    <path id="Path_1067" data-name="Path 1067" d="M-422.664,762.054a1.06,1.06,0,0,1,1.01,1.034,1.107,1.107,0,0,1-1.132,1.042,1.07,1.07,0,0,1-.994-1.06A1.01,1.01,0,0,1-422.664,762.054Z" transform="translate(-89.96 -32.706)" fill-rule="evenodd"/>
    <path id="Path_1068" data-name="Path 1068" d="M-436.255,759.457a1.032,1.032,0,0,1-1.115,1.028,1.061,1.061,0,0,1-1-1.047,1.078,1.078,0,0,1,1.017-1.041A1.054,1.054,0,0,1-436.255,759.457Z" transform="translate(-78.527 -29.84)" fill-rule="evenodd"/>
    <path id="Path_1069" data-name="Path 1069" d="M-450.909,755.717a1.039,1.039,0,0,1-1.006,1.057,1.033,1.033,0,0,1-1.059-1,1.018,1.018,0,0,1,1.057-1.1A1.022,1.022,0,0,1-450.909,755.717Z" transform="translate(-67.082 -26.918)" fill-rule="evenodd"/>
    <path id="Path_1070" data-name="Path 1070" d="M-408.164,767.883a.976.976,0,0,1-.957-1.069,1,1,0,0,1,1.176-.959.989.989,0,0,1,.893,1.125A.972.972,0,0,1-408.164,767.883Z" transform="translate(-101.447 -35.679)" fill-rule="evenodd"/>
    <path id="Path_1071" data-name="Path 1071" d="M-518.621,806.384a6.505,6.505,0,0,1-6.558-6.5,6.4,6.4,0,0,1,6.523-6.5,6.415,6.415,0,0,1,6.452,6.468A6.512,6.512,0,0,1-518.621,806.384Zm1.344-7.288a6.963,6.963,0,0,0-1.408-4.375c-1.193,1.3-1.3,2.8-1.391,4.375Zm-1.391,5.989a7.2,7.2,0,0,0,1.35-4.43h-2.769A7.013,7.013,0,0,0-518.668,805.086Zm-2.954-5.976c.1-.694.158-1.3.269-1.9.1-.566.259-1.122.444-1.9a4.978,4.978,0,0,0-2.711,3.8Zm5.227-3.632.666,3.668c.348,0,.668.006.987,0s.625-.031.941-.048A4.405,4.405,0,0,0-516.395,795.477Zm-.007,8.754a3.994,3.994,0,0,0,2.5-3.6h-1.83Zm-7.2-3.606a4.1,4.1,0,0,0,2.613,3.558l-.7-3.558Z" transform="translate(-10.498 -57.262)" fill-rule="evenodd"/>
  </g>
</svg>
