<svg xmlns="http://www.w3.org/2000/svg" width="33.035" height="24.795" viewBox="0 0 33.035 24.795">
  <g id="driving_license_icon" transform="translate(532.277 -1277.986)">
    <path id="Path_1090" data-name="Path 1090" d="M-515.656,1277.989q6.916,0,13.831,0c1.837,0,2.578.731,2.579,2.552q.007,9.857,0,19.715c0,1.753-.759,2.494-2.524,2.5-.895.005-1.789.017-2.684,0-1.142-.027-1.606-.489-1.685-1.631-.017-.24,0-.484-.038-.72a2.04,2.04,0,0,0-2.079-1.766,2.066,2.066,0,0,0-1.978,1.887c-.19,2.1-.339,2.235-2.44,2.236q-3.613,0-7.225,0c-1.636,0-2-.348-2.068-1.959a2.077,2.077,0,0,0-2.025-2.166,2.089,2.089,0,0,0-2.086,2.108c-.012.206,0,.414-.016.619a1.371,1.371,0,0,1-1.387,1.379,25.387,25.387,0,0,1-2.888-.007,2.017,2.017,0,0,1-1.892-1.862,1.683,1.683,0,0,1-.011-.206c0-6.847-.011-13.694.008-20.541a2.04,2.04,0,0,1,2.159-2.137c.24-.01.482,0,.722,0Zm10.96,23.285a1.836,1.836,0,0,0,.38.111c.757.012,1.513.02,2.27.016,1.309-.007,1.435-.125,1.44-1.4.007-2.064,0-4.128,0-6.193q0-6.451,0-12.9c0-1.454-.1-1.55-1.49-1.559-.241,0-.482,0-.722,0h-20.126c-2.271,0-4.542-.01-6.812.006-.959.007-1.124.2-1.159,1.16-.006.172,0,.344,0,.516q0,9.341,0,18.681c0,.309,0,.62.024.928a.7.7,0,0,0,.717.732c.878.024,1.758.007,2.633.007.054-.482.076-.824.133-1.161a3.351,3.351,0,0,1,3.231-2.93,3.35,3.35,0,0,1,3.512,2.718c.1.425.161.86.243,1.308h8.623c.541-2.808,1.594-4,3.531-4.029a3.3,3.3,0,0,1,2.125.656A3.956,3.956,0,0,1-504.7,1301.274Z" transform="translate(0)" fill-rule="evenodd"/>
    <path id="Path_1091" data-name="Path 1091" d="M-512.823,1305.6c-2.465-1.346-3.281-2.828-2.71-4.894a3.811,3.811,0,0,1,3.741-2.678,3.828,3.828,0,0,1,3.606,3.132c.26,1.467-.354,3.479-2.922,4.4.319.09.545.158.774.218a6.917,6.917,0,0,1,5.106,4.763c.3.908.111,1.2-.857,1.219-1.409.027-2.818.009-4.228.009q-3.558,0-7.115,0c-1.391,0-1.605-.286-1.081-1.6a6.959,6.959,0,0,1,4.771-4.333C-513.443,1305.744-513.142,1305.677-512.823,1305.6Zm6.019,4.778a5.637,5.637,0,0,0-5.473-3.387c-2.022.1-4.537,1.859-4.676,3.387Zm-5.162-10.967a2.423,2.423,0,0,0-2.368,2.458,2.443,2.443,0,0,0,2.394,2.338,2.358,2.358,0,0,0,2.39-2.413A2.358,2.358,0,0,0-511.966,1299.408Z" transform="translate(-10.717 -15.899)" fill-rule="evenodd"/>
    <path id="Path_1092" data-name="Path 1092" d="M-439.71,1331.412h3.809c.24,0,.481,0,.72.011.407.027.794.162.8.629,0,.49-.341.716-.824.717l-2.986,0q-2.934,0-5.868,0a1.831,1.831,0,0,1-.805-.078.854.854,0,0,1-.422-.612.847.847,0,0,1,.447-.581,1.92,1.92,0,0,1,.808-.082C-442.593,1331.409-441.151,1331.413-439.71,1331.412Z" transform="translate(-69.029 -42.396)" fill-rule="evenodd"/>
    <path id="Path_1093" data-name="Path 1093" d="M-439.873,1352.745q-2.059,0-4.118,0a1.582,1.582,0,0,1-.708-.044c-.235-.132-.531-.4-.54-.619s.28-.493.507-.63a1.485,1.485,0,0,1,.706-.063q4.221,0,8.442,0a4.242,4.242,0,0,1,.514.018c.41.05.766.211.722.691a.7.7,0,0,1-.789.646c-1.167,0-2.334,0-3.5,0Z" transform="translate(-69.068 -58.24)" fill-rule="evenodd"/>
    <path id="Path_1094" data-name="Path 1094" d="M-442.278,1311.428c.719,0,1.438,0,2.157,0,.459,0,.859.168.845.682-.014.5-.408.668-.87.668q-2.208,0-4.416,0c-.464,0-.836-.176-.837-.693,0-.547.425-.648.862-.655C-443.785,1311.419-443.031,1311.428-442.278,1311.428Z" transform="translate(-68.941 -26.535)" fill-rule="evenodd"/>
  </g>
</svg>
