<svg xmlns="http://www.w3.org/2000/svg" width="35.097" height="23.495" viewBox="0 0 35.097 23.495">
  <g id="visa_icon" transform="translate(514.008 -930.475)">
    <path id="Path_1072" data-name="Path 1072" d="M-496.5,953.912c-4.953,0-9.906.012-14.859-.006-1.857-.007-2.637-.832-2.644-2.7-.006-1.642-.011-3.285,0-4.927.01-1.276.338-1.649,1.609-1.907a2.212,2.212,0,0,0,1.889-2.211,2.221,2.221,0,0,0-1.873-2.116c-1.338-.277-1.622-.618-1.627-1.995-.006-1.679-.013-3.358,0-5.037a2.247,2.247,0,0,1,2.4-2.505c.255-.013.511-.006.766-.006,9.563,0,19.126.034,28.688-.025,2.378-.015,3.359.885,3.224,3.262-.083,1.455-.035,2.92-.009,4.379a1.774,1.774,0,0,1-1.366,1.962,2.075,2.075,0,0,0-1.543,2.033,2.1,2.1,0,0,0,1.529,2.152,1.851,1.851,0,0,1,1.382,2.066c-.034,1.605-.005,3.212-.01,4.818-.006,1.946-.772,2.746-2.7,2.761-4.008.032-8.016.043-12.024.06-.946,0-1.891,0-2.837,0Zm16.111-8.1a3.612,3.612,0,0,1-2.9-3.324c-.151-2.066,1.005-3.326,2.906-3.991,0-1.6,0-3.135,0-4.666,0-1.822-.007-1.829-1.829-1.829H-510.7c-.256,0-.512-.009-.767.005-.9.048-1.076.2-1.09,1.131-.023,1.5-.011,2.994,0,4.492,0,.282.047.564.074.859,1.941.434,3.291,1.429,3.4,3.5.118,2.35-1.336,3.469-3.474,3.994,0,1.654,0,3.256,0,4.859,0,1.475.095,1.576,1.533,1.573,2.775,0,5.55-.037,8.326-.034q10.243.008,20.486.037c.292,0,.586.014.876-.01.717-.061.927-.223.939-.94C-480.368,949.606-480.388,947.747-480.388,945.808Z" fill-rule="evenodd"/>
    <path id="Path_1073" data-name="Path 1073" d="M-446.133,956.445c-1.935,0-3.869.009-5.8,0-1.589-.01-2.071-.508-2.082-2.11,0-.694-.029-1.389.009-2.08.062-1.144.578-1.672,1.716-1.678q6.3-.029,12.594,0c1.2.005,1.694.526,1.745,1.76.032.766.027,1.534,0,2.3-.04,1.262-.552,1.788-1.829,1.8-2.117.027-4.234.007-6.352.007Zm-6.374-1.582h13.033a8.42,8.42,0,0,0-.062-2.719h-12.971Z" transform="translate(-46.833 -15.683)" fill-rule="evenodd"/>
    <path id="Path_1074" data-name="Path 1074" d="M-401.434,996.982a2.955,2.955,0,0,1-2.944,2.9,2.958,2.958,0,0,1-2.866-2.973,2.913,2.913,0,0,1,2.943-2.877A2.912,2.912,0,0,1-401.434,996.982Zm-2.856-1.443a1.35,1.35,0,0,0-1.461,1.308,1.421,1.421,0,0,0,1.364,1.539,1.424,1.424,0,0,0,1.467-1.443A1.355,1.355,0,0,0-404.29,995.539Z" transform="translate(-83.366 -49.625)" fill-rule="evenodd"/>
    <path id="Path_1075" data-name="Path 1075" d="M-449.483,1010.58c.981,0,1.962,0,2.943,0a5.9,5.9,0,0,1,.761.034.661.661,0,0,1,.649.73.7.7,0,0,1-.69.706,6.482,6.482,0,0,1-.652.026q-3,0-6,0c-.218,0-.436-.006-.653-.024a.7.7,0,0,1-.7-.694.676.676,0,0,1,.743-.755c1.2-.021,2.4-.007,3.6-.007Z" transform="translate(-46.995 -62.549)" fill-rule="evenodd"/>
    <path id="Path_1076" data-name="Path 1076" d="M-437.579,997.41c.692,0,1.385,0,2.077,0a.752.752,0,0,1,.849.674c.05.4-.329.74-.887.749-1.348.023-2.7.01-4.045,0a.729.729,0,0,1-.831-.684c-.045-.442.255-.714.869-.741.655-.03,1.312-.007,1.968-.007Z" transform="translate(-57.461 -52.257)" fill-rule="evenodd"/>
    <path id="Path_1077" data-name="Path 1077" d="M-481.741,1011.926a1.146,1.146,0,0,1-1.047,1.053,1.1,1.1,0,0,1-1.108-1.094,1.06,1.06,0,0,1,1.147-1.032A1.1,1.1,0,0,1-481.741,1011.926Z" transform="translate(-23.513 -62.762)" fill-rule="evenodd"/>
    <path id="Path_1078" data-name="Path 1078" d="M-482.777,944.119a1.118,1.118,0,0,1,1.044,1.048,1.094,1.094,0,0,1-1.111,1.082,1.054,1.054,0,0,1-1.037-1.037A1.092,1.092,0,0,1-482.777,944.119Z" transform="translate(-23.524 -10.654)" fill-rule="evenodd"/>
    <path id="Path_1079" data-name="Path 1079" d="M-482.933,963a1.007,1.007,0,0,1-.938-1.12,1.043,1.043,0,0,1,1.245-.922,1.071,1.071,0,0,1,.89,1.174A1.053,1.053,0,0,1-482.933,963Z" transform="translate(-23.529 -23.788)" fill-rule="evenodd"/>
    <path id="Path_1080" data-name="Path 1080" d="M-482.878,979.675a1.006,1.006,0,0,1-.99-1.076,1.028,1.028,0,0,1,1.2-.98,1.041,1.041,0,0,1,.941,1.13A1.043,1.043,0,0,1-482.878,979.675Z" transform="translate(-23.533 -36.807)" fill-rule="evenodd"/>
    <path id="Path_1081" data-name="Path 1081" d="M-481.733,995.208a1.134,1.134,0,0,1-1.033,1.064,1.1,1.1,0,0,1-1.115-1.085,1.052,1.052,0,0,1,1.133-1.05A1.1,1.1,0,0,1-481.733,995.208Z" transform="translate(-23.525 -49.709)" fill-rule="evenodd"/>
  </g>
</svg>
